<?xml version="1.0" encoding="UTF-8"?>
<!DOCTYPE svg PUBLIC "-//W3C//DTD SVG 1.1//EN" "http://www.w3.org/Graphics/SVG/1.1/DTD/svg11.dtd">
<!-- Creator: CorelDRAW 2020 (64-Bit) -->
<svg xmlns="http://www.w3.org/2000/svg" xml:space="preserve" width="43.3494mm" height="43.3494mm" version="1.1" style="shape-rendering:geometricPrecision; text-rendering:geometricPrecision; image-rendering:optimizeQuality; fill-rule:evenodd; clip-rule:evenodd"
viewBox="0 0 283.5 283.5"
 xmlns:xlink="http://www.w3.org/1999/xlink"
 xmlns:xodm="http://www.corel.com/coreldraw/odm/2003">
 <defs>
  <style type="text/css">
   <![CDATA[
    .fil1 {fill:white}
    .fil0 {fill:url(#id1)}
   ]]>
  </style>
   <clipPath id="id0">
    <rect x="35.73" y="28.49" width="221.31" height="245.24"/>
   </clipPath>
  <linearGradient id="id1" gradientUnits="userSpaceOnUse" x1="26.15" y1="59.71" x2="257.34" y2="223.79">
   <stop offset="0" style="stop-opacity:1; stop-color:#0489C7"/>
   <stop offset="1" style="stop-opacity:1; stop-color:#00A8F3"/>
  </linearGradient>
 </defs>
 <g id="Katman_x0020_1">
  <metadata id="CorelCorpID_0Corel-Layer"/>
  <rect class="fil0" x="0" y="0" width="283.5" height="283.5" rx="42.06" ry="42.06"/>
  <g style="clip-path:url(#id0)">
   <image x="35.73" y="28.49" width="221.31" height="245.24" xlink:href="Favicon_Images\Favicon_ImgID1.png"/>
  </g>
  <g id="_802687760">
   <path class="fil1" d="M148.85 122.2c0.71,1.46 2.88,3.69 4.18,5.31 1.37,1.71 2.71,3.55 4.07,5.38 15.29,20.46 24.48,49.3 18.39,75.32 -1.19,5.07 -2.96,9.91 -5.07,14.3 -1.61,3.34 -1.14,3.61 -4.76,4.7 -2.32,0.7 -5.33,1.66 -7.69,1.98 7.22,-16.08 11.98,-27.1 9.19,-47.5 -3.31,-24.23 -14.93,-41.61 -29.51,-57.71 -16.8,-18.56 -46.53,-37.55 -70.63,-45.97 -3.28,-1.14 -8.39,-3.23 -11.78,-1.13 -3.45,2.13 -3.8,5.6 -2.81,10.46 8.8,43.13 -7.28,66.02 8.58,104.88 18.32,44.87 71.05,65.16 115.05,46.46 25.26,-10.74 45.55,-33.28 51.6,-65.52 5.43,-28.93 -4.32,-46.49 2.09,-80.89 0.75,-4.02 2.85,-8.85 1.09,-12.61 -1.61,-3.44 -5.6,-4.36 -10.32,-2.94 -14.01,4.22 -29.38,11.45 -39.74,18.57l-17.02 12.4c-2.75,2.1 -13.94,12.36 -14.92,14.54zm18.96 1.05l5.66 8.52c1.87,3.02 3.49,6.02 5.29,9.43 7.32,13.85 11.92,30.02 12.68,46.11 0.52,10.95 -1.26,16.93 -2.57,26.79 4.45,-2.33 14.21,-15.14 16.86,-20.37 12.19,-24.06 9.91,-39.05 8.24,-64.16 -0.88,-13.11 -0.16,-22.89 0.98,-35.63 -9.88,2.01 -43.56,23.44 -47.13,29.32zm-99.61 -29.37c3.07,29.14 1.52,24.66 -0.29,51.95 -1.12,16.91 2.15,34.04 9.22,47.09 9.88,18.24 26.72,32.01 47.62,36.42 2.9,0.61 9.61,1.82 12.58,1.55 2.89,-0.26 5.52,-4.65 7.13,-7.04 19.37,-28.72 5.58,-62.74 -11.01,-83.06 -8.25,-10.11 -17.82,-18.68 -29.24,-26.96 -5.84,-4.23 -27.89,-18.69 -36.02,-19.96z"/>
   <path class="fil1" d="M80.19 76.46l12.48 5.9 3.66 -15.17c11.88,1.22 31.52,13.41 40.4,20.44 4.39,3.48 11.97,10.73 15.46,15l3.01 3.35 10.32 -8.96c-2.8,-4.62 -8.92,-10.28 -12.29,-13.72 3.17,-4.06 25.58,-15.45 33.27,-16.05l3.77 14.83 12.67 -5.55c-0.22,-3.43 -3.92,-19.1 -5.26,-21.49 -3.57,-6.37 -14,-2.26 -20.16,-0.33 -8.3,2.61 -31.73,13.42 -35.26,18.63l-17.22 -10.28c-5.99,-3.31 -12.2,-5.88 -19.09,-8.2 -6.28,-2.12 -16.52,-6.34 -20.24,-0.03 -1.85,3.14 -5.33,17.35 -5.52,21.64z"/>
   <path class="fil1" d="M115.88 52.35c0.27,0.22 11.66,5.89 12.62,6.26 3.11,1.22 9,-5.12 12.66,-5.63 4.05,-0.56 9.58,6.51 13.06,5.29 1.16,-0.41 12.4,-5.89 12.98,-6.46 -1.8,-1.13 -3.79,-2.82 -5.77,-4.12 -20.91,-13.68 -19.62,-11.16 -33.6,-3.81 -4.14,2.18 -9.33,5.56 -11.95,8.47z"/>
  </g>
 </g>
</svg>
